<svg width="158" height="82" viewBox="0 0 158 82" fill="none" xmlns="http://www.w3.org/2000/svg">
<path d="M9.68 14.32H17.12V29.04H26.24V34.88H17.12V62H9.68V34.88H3.6V29.04H9.68V14.32ZM45.71 63.28C42.7233 63.28 40.2433 62.3733 38.27 60.56C36.35 58.6933 35.3367 56.2933 35.23 53.36V28.88H42.67V50.72C42.7767 52.5333 43.2833 54 44.19 55.12C45.15 56.24 46.6433 56.8267 48.67 56.88C50.5367 56.88 52.19 56.3467 53.63 55.28C55.1233 54.16 56.3233 52.6667 57.23 50.8C58.1367 48.88 58.59 46.72 58.59 44.32V28.88H66.03V62H59.23L58.59 53.84L58.99 55.28C58.35 56.8267 57.3633 58.2133 56.03 59.44C54.75 60.6133 53.23 61.5467 51.47 62.24C49.71 62.9333 47.79 63.28 45.71 63.28ZM78.9019 0.0799961H86.3419V62H78.9019V0.0799961ZM99.2144 28.88H106.654V62H99.2144V28.88ZM98.6544 16.88C98.6544 15.7067 99.1077 14.72 100.014 13.92C100.974 13.12 102.014 12.72 103.134 12.72C104.254 12.72 105.241 13.12 106.094 13.92C107.001 14.72 107.454 15.7067 107.454 16.88C107.454 18.1067 107.001 19.12 106.094 19.92C105.241 20.6667 104.254 21.04 103.134 21.04C102.014 21.04 100.974 20.64 100.014 19.84C99.1077 19.04 98.6544 18.0533 98.6544 16.88Z" fill="#D9B1AD"/>
<path d="M132.532 59.6726C134.38 57.7875 136.193 56.9 136.435 51.5799C136.384 50.2301 134.969 40.0334 135.509 37.58C136.048 35.1265 140.089 32.1598 139.881 34.4148C138.572 36.7719 138.775 41.5315 138.886 41.5418C139.348 43.7239 140.776 46.8189 141.01 47.274C141.245 47.7291 142.003 48.9427 141.405 51.3649C140.716 53.6865 140.178 54.5011 139.681 54.1781C139.187 53.7298 138.771 52.8799 139.068 52.032C139.662 50.7126 140.101 49.798 143.542 44.7545C144.642 43.3031 145.981 42.0349 146.98 36.189C147.3 33.2243 147.366 32.111 147.431 30.3819M147.431 30.3819C144.094 29.4489 142.445 28.6518 140.541 25.9513C137.662 21.9899 137.484 17.6386 137.567 9.28307C137.858 8.72536 142.632 13.4413 145.073 19.2007C146.979 25.0953 147.062 26.8707 147.431 30.3819ZM147.431 30.3819C150.507 28.7936 151.997 27.6311 153.332 24.0285C155.102 16.9754 152.312 7.54769 151.507 7.47488C150.873 7.61675 150.282 9.28735 148.777 15.5898C147.902 22.0699 147.291 26.0589 148.43 26.5959C149.245 27.1012 151.016 24.241 150.77 21.3348C150.322 17.81 149.882 15.7273 148.554 11.9662C147.4 9.46674 146.722 8.45642 145.461 7.29832C145.038 7.19759 144.062 9.83334 143.185 12.9471" stroke="#D9B1AD" stroke-width="2" stroke-linecap="round"/>
</svg>
